:SAMPLES-PER-SECOND 30
:FULLY-SPECIFIED
:DEGREES
140
root  13.2973 39.7567 -0.211412 -120.947 -88.0881 116.311
RightUpLeg  3.20201 -7.91336 -3.69704
RightLeg  9.49057 3.94745 0.307974
RightFoot  -9.1504 -0.0501015 -0.637843
RightToes  4.6566e-010 0 -3.6325e-017
Spine  -0.163909 -0.65108 1.70316
Spine1  10.429 -0.466375 -0.37495
HEad  -10.7521 -9.89672 -6.26704
LeftShoulder1  -0.539594 5.10072 -27.6588
LeftArm  -15.1969 7.18298 -40.8198
LeftForeArm  21.5617 -7.03923 -2.62351
LeftHand  -0.0645611 4.18526 4.45942
RightShoulder  -0.577551 -5.40041 23.6765
RightArm  -6.78383 -0.597272 36.753
RightForeArm  8.0781 2.70967 -1.10619
RightHand  -0.376293 5.5355 -4.30957
LeftUpLeg  4.14962 7.5039 5.51185
LeftLeg  5.52183 -3.45002 0.507516
LeftFoot  -4.86856 0.152082 -2.18124
LeftToes  -4.59298e-010 2.08438e-011 -1.27151e-011
141
root  13.1362 39.6319 -0.305541 -131.71 -88.098 126.935
RightUpLeg  2.96579 -8.39275 -3.6437
RightLeg  10.9291 4.63175 0.822644
RightFoot  -10.3336 -0.0623839 -0.837599
RightToes  4.6566e-010 0 -3.6325e-017
Spine  -0.030934 -0.783206 2.9185
Spine1  10.6417 -0.446594 -0.630517
HEad  -10.9631 -8.91533 -6.87468
LeftShoulder1  -0.637458 5.32774 -28.7769
LeftArm  -15.7506 9.98253 -43.797
LeftForeArm  22.9567 -8.33667 -2.56771
LeftHand  -0.0819867 3.2439 3.58226
RightShoulder  -0.705503 -5.71852 25.1887
RightArm  -6.55877 -1.90127 39.7499
RightForeArm  8.58675 2.86056 -0.992761
RightHand  -0.361783 5.15704 -4.28445
LeftUpLeg  3.15737 6.22835 5.60749
LeftLeg  8.48314 -2.06531 0.808809
LeftFoot  -6.52074 0.141355 -2.39582
LeftToes  -4.59298e-010 2.08438e-011 -1.27151e-011
142
root  12.97 39.4896 -0.367932 -140.409 -88.2065 135.337
RightUpLeg  2.85425 -8.84368 -3.5536
RightLeg  12.5183 5.15267 1.20123
RightFoot  -11.5066 -0.0793465 -0.888823
RightToes  4.6566e-010 0 -3.6325e-017
Spine  0.840152 -0.894032 4.31135
Spine1  10.2116 -0.378941 -0.66492
HEad  -10.733 -8.25887 -7.64846
LeftShoulder1  -0.741297 5.57564 -29.5971
LeftArm  -16.0294 12.7641 -46.2009
LeftForeArm  24.0573 -9.23914 -2.68189
LeftHand  -0.0897001 2.84059 3.62644
RightShoulder  -0.843472 -6.05385 26.4561
RightArm  -5.78263 -3.90816 42.0385
RightForeArm  9.40437 4.11581 -0.566043
RightHand  -0.401098 5.18808 -4.70317
LeftUpLeg  1.80552 4.21442 5.87114
LeftLeg  12.4509 0.0451822 0.766678
LeftFoot  -7.94789 0.123495 -2.61952
LeftToes  -4.59298e-010 2.08438e-011 -1.27151e-011
143
root  12.8103 39.3559 -0.412765 -135.276 -88.7115 129.746
RightUpLeg  3.06569 -9.22644 -3.42689
RightLeg  13.9096 5.11396 1.48828
RightFoot  -12.5394 -0.0947894 -0.978639
RightToes  4.6566e-010 0 -3.6325e-017
Spine  1.72824 -0.908035 5.46107
Spine1  10.1547 -0.349319 -0.251564
HEad  -10.072 -8.04016 -8.72654
LeftShoulder1  -0.842556 5.78754 -30.7307
LeftArm  -15.1144 14.3492 -47.4561
LeftForeArm  25.8114 -9.27854 -3.25423
LeftHand  -0.11341 1.39157 3.0808
RightShoulder  -1.00235 -6.43902 27.6153
RightArm  -3.7327 -5.82448 43.1947
RightForeArm  10.2941 5.82649 0.365311
RightHand  -0.427561 5.37966 -4.91599
LeftUpLeg  -0.224201 2.9249 6.30522
LeftLeg  17.6503 1.76195 0.903437
LeftFoot  -8.33004 0.167581 -4.40397
LeftToes  -4.59298e-010 2.08438e-011 -1.27151e-011
144
root  12.6148 39.2611 -0.439816 -104.293 -89.1866 98.5164
RightUpLeg  3.34407 -9.44722 -3.3852
RightLeg  14.834 4.52812 1.43661
RightFoot  -13.3935 -0.106083 -0.853505
RightToes  4.6566e-010 0 -3.6325e-017
Spine  1.76249 -1.01218 6.34749
Spine1  10.8115 -0.404831 -0.000358208
HEad  -9.66104 -7.09093 -8.96436
LeftShoulder1  -0.911894 5.95817 -30.9857
LeftArm  -13.9416 15.2373 -48.5685
LeftForeArm  26.4238 -8.20522 -3.87584
LeftHand  -0.064918 3.19528 2.63309
RightShoulder  -1.05443 -6.52523 28.3593
RightArm  -1.68603 -7.37434 44.4657
RightForeArm  11.6922 6.94828 1.21478
RightHand  -0.422844 5.20695 -4.934
LeftUpLeg  -2.8697 3.50902 6.39939
LeftLeg  23.1619 2.3289 1.41866
LeftFoot  -7.4038 0.222074 -5.20679
LeftToes  -4.59298e-010 2.08438e-011 -1.27151e-011
